<?xml version="1.0" encoding="UTF-8" standalone="no"?>
<svg
   xmlns:dc="http://purl.org/dc/elements/1.1/"
   xmlns:cc="http://creativecommons.org/ns#"
   xmlns:rdf="http://www.w3.org/1999/02/22-rdf-syntax-ns#"
   xmlns:svg="http://www.w3.org/2000/svg"
   xmlns="http://www.w3.org/2000/svg"
   id="svg3975"
   version="1.1"
   viewBox="0 0 116.24382 26.584557"
   height="26.584557mm"
   width="116.24382mm">
  <defs
     id="defs3969">
    <clipPath
       id="clipPath3735"
       clipPathUnits="userSpaceOnUse">
      <path
         id="path3733"
         d="M 0,595.28 H 841.89 V 0 H 0 Z" />
    </clipPath>
  </defs>
  <metadata
     id="metadata3972">
    <rdf:RDF>
      <cc:Work
         rdf:about="">
        <dc:format>image/svg+xml</dc:format>
        <dc:type
           rdf:resource="http://purl.org/dc/dcmitype/StillImage" />
        <dc:title></dc:title>
      </cc:Work>
    </rdf:RDF>
  </metadata>
  <g
     transform="translate(-22.765001,-31.975576)"
     id="layer1">
    <path
       id="path3725"
       style="fill:#e42313;fill-opacity:1;fill-rule:nonzero;stroke:none;stroke-width:0.35277775"
       d="m 48.655608,48.939571 h 3.06175 v 9.352139 h -3.06175 z m 0.45191,-1.008944 h -2.30647 l 2.01683,-2.681111 h 2.73686 l 2.01894,2.681111 h -2.30575 l -1.08056,-1.443214 z" />
    <path
       id="path3727"
       style="fill:#e42313;fill-opacity:1;fill-rule:nonzero;stroke:none;stroke-width:0.35277775"
       d="m 53.208908,45.42661 h 3.06352 v 12.8651 h -3.06352 z" />
    <g
       id="g3729"
       transform="matrix(0.35277777,0,0,-0.35277777,-67.613242,150.26863)">
      <g
         clip-path="url(#clipPath3735)"
         id="g3731">
        <g
           transform="translate(372.9248,276.6978)"
           id="g3737">
          <path
             id="path3739"
             style="fill:#e42313;fill-opacity:1;fill-rule:nonzero;stroke:none"
             d="m 0,0 c -0.152,2.98 -2.251,5.427 -5.158,5.427 -3.061,0 -5.104,-2.195 -5.619,-5.427 z m -10.777,-4.841 c 0.153,-3.625 2.249,-6.025 5.931,-6.025 2.083,0 4.13,0.971 4.947,2.917 h 8.126 c -1.582,-6.133 -7.26,-8.787 -13.183,-8.787 -8.627,0 -14.501,5.209 -14.501,14.091 0,8.121 6.486,13.945 14.299,13.945 9.501,0 14.249,-7.154 13.845,-16.141 h -19.464" />
        </g>
        <g
           transform="translate(393.0146,263.2643)"
           id="g3741">
          <path
             id="path3743"
             style="fill:#e42313;fill-opacity:1;fill-rule:nonzero;stroke:none"
             d="m 0,0 c 4.592,0 6.365,3.944 6.365,7.844 0,4.116 -1.857,7.892 -6.559,7.892 -4.67,0 -6.245,-3.981 -6.245,-8.051 C -6.439,3.784 -4.422,0 0,0 M 9.671,-2.542 H 6.247 V 0.272 H 6.165 C 5.042,-2.02 2.378,-3.022 -0.476,-3.022 c -6.405,0 -9.583,5.075 -9.583,10.949 0,5.879 3.141,10.833 9.506,10.833 2.128,0 5.189,-0.8 6.718,-3.259 H 6.247 V 26.207 H 9.671 V -2.542" />
        </g>
        <g
           transform="translate(420.3936,273.1246)"
           id="g3745">
          <path
             id="path3747"
             style="fill:#e42313;fill-opacity:1;fill-rule:nonzero;stroke:none"
             d="m 0,0 c -0.159,3.265 -2.608,5.876 -5.997,5.876 -3.585,0 -5.717,-2.693 -5.957,-5.876 z m 3.308,-5.799 c -0.93,-4.587 -4.226,-7.084 -8.902,-7.084 -6.641,0 -9.785,4.59 -9.984,10.949 0,6.246 4.108,10.833 9.787,10.833 7.365,0 9.622,-6.886 9.418,-11.923 h -15.581 c -0.12,-3.628 1.939,-6.836 6.479,-6.836 2.819,0 4.792,1.374 5.398,4.061 h 3.385" />
        </g>
        <g
           transform="translate(426.2441,297.19)"
           id="g3749">
          <path
             id="path3751"
             style="fill:#e42313;fill-opacity:1;fill-rule:nonzero;stroke:none"
             d="M 0,0 H 26.855 V -7.609 H 9.489 v -7.456 h 15.017 v -7.353 H 9.489 v -14.05 H 0 Z" />
        </g>
        <g
           transform="translate(454.8359,287.232)"
           id="g3753">
          <path
             id="path3755"
             style="fill:#e42313;fill-opacity:1;fill-rule:nonzero;stroke:none"
             d="m 0,0 h 8.431 v -4.649 h 0.091 c 1.284,3.37 4.239,5.167 7.973,5.167 0.662,0 1.374,-0.066 2.042,-0.217 V -7.61 c -1.125,0.308 -2.14,0.513 -3.32,0.513 -4.289,0 -6.544,-2.966 -6.544,-6.289 V -26.51 H 0 Z" />
        </g>
        <g
           transform="translate(484.6084,265.3219)"
           id="g3757">
          <path
             id="path3759"
             style="fill:#e42313;fill-opacity:1;fill-rule:nonzero;stroke:none"
             d="M 0,0 C 4.129,0 5.511,2.347 5.308,7.811 4.085,7.053 1.837,6.89 -0.054,6.383 -1.991,5.931 -3.627,5.11 -3.627,3.011 -3.627,0.87 -1.947,0 0,0 m -11.235,13.741 c 0.152,3.463 1.789,5.717 4.13,7.099 2.351,1.322 5.412,1.836 8.433,1.836 6.276,0 12.359,-1.381 12.359,-8.888 V 2.195 c 0,-2.246 0,-4.695 1.024,-6.795 H 5.972 c -0.304,0.821 -0.408,1.634 -0.51,2.501 -2.246,-2.346 -5.565,-3.261 -8.736,-3.261 -5.053,0 -9.033,2.547 -9.033,8.017 0,8.627 9.395,7.961 15.418,9.191 1.484,0.305 2.3,0.815 2.3,2.452 0,1.987 -2.395,2.755 -4.186,2.755 -2.403,0 -3.931,-1.076 -4.343,-3.314 h -8.117" />
        </g>
        <g
           transform="translate(501.457,287.232)"
           id="g3761">
          <path
             id="path3763"
             style="fill:#e42313;fill-opacity:1;fill-rule:nonzero;stroke:none"
             d="m 0,0 h 8.431 v -3.628 h 0.1 c 1.585,2.707 5.156,4.394 8.323,4.394 8.837,0 9.552,-6.435 9.552,-10.27 V -26.51 h -8.677 v 12.818 c 0,3.629 0.407,7.303 -4.346,7.303 -3.267,0 -4.697,-2.753 -4.697,-5.665 V -26.51 H 0 Z" />
        </g>
        <g
           transform="translate(548.3447,277.5211)"
           id="g3765">
          <path
             id="path3767"
             style="fill:#e42313;fill-opacity:1;fill-rule:nonzero;stroke:none"
             d="m 0,0 c -0.053,2.247 -2.046,3.833 -4.238,3.833 -4.853,0 -5.62,-4.134 -5.62,-7.814 0,-3.422 1.481,-6.941 5.159,-6.941 3.011,0 4.554,1.734 4.95,4.537 H 8.682 C 7.915,-13.478 2.402,-17.56 -4.649,-17.56 c -7.963,0 -13.895,5.464 -13.895,13.579 0,8.428 5.365,14.458 13.895,14.458 6.59,0 12.463,-3.476 13.08,-10.477 z" />
        </g>
        <g
           transform="translate(576.9951,276.6978)"
           id="g3769">
          <path
             id="path3771"
             style="fill:#e42313;fill-opacity:1;fill-rule:nonzero;stroke:none"
             d="m 0,0 c -0.153,2.98 -2.249,5.427 -5.166,5.427 -3.059,0 -5.096,-2.195 -5.608,-5.427 z m -10.774,-4.841 c 0.153,-3.625 2.244,-6.025 5.923,-6.025 2.089,0 4.137,0.971 4.95,2.917 h 8.125 c -1.586,-6.133 -7.258,-8.787 -13.181,-8.787 -8.629,0 -14.502,5.209 -14.502,14.091 0,8.121 6.488,13.945 14.293,13.945 9.507,0 14.255,-7.154 13.847,-16.141 h -19.455" />
        </g>
        <g
           transform="translate(342.3535,320.235)"
           id="g3773">
          <path
             id="path3775"
             style="fill:#2a327c;fill-opacity:1;fill-rule:nonzero;stroke:none"
             d="m 0,0 c 3.88,0 7.193,1.003 7.193,5.536 0,3.052 -1.656,5.318 -5.536,5.318 H -8.631 V 0 Z M -12.773,14.343 H 1.875 c 5.841,0 9.459,-3.183 9.459,-8.153 0,-3.749 -1.656,-6.844 -5.405,-7.89 v -0.087 c 3.618,-0.698 4.36,-3.358 4.665,-6.409 0.261,-3.051 0.087,-6.451 1.83,-8.588 H 7.804 C 6.626,-15.52 7.28,-12.163 6.67,-9.111 6.234,-6.06 5.493,-3.487 1.482,-3.487 H -8.631 v -13.297 h -4.142 z" />
        </g>
        <g
           transform="translate(368.8623,335.3189)"
           id="g3777">
          <path
             id="path3779"
             style="fill:#2a327c;fill-opacity:1;fill-rule:nonzero;stroke:none"
             d="m 0,0 h 4.751 l -5.71,-6.234 H -3.75 Z m 5.624,-18.44 c -0.175,3.53 -2.834,6.364 -6.496,6.364 -3.88,0 -6.19,-2.921 -6.452,-6.364 z m 3.574,-6.279 c -1.002,-4.969 -4.577,-7.672 -9.634,-7.672 -7.193,0 -10.593,4.97 -10.812,11.858 0,6.757 4.447,11.726 10.594,11.726 7.978,0 10.419,-7.454 10.201,-12.903 H -7.324 c -0.131,-3.924 2.093,-7.411 7.019,-7.411 3.051,0 5.187,1.481 5.841,4.402 z" />
        </g>
        <g
           transform="translate(398.0288,315.1783)"
           id="g3781">
          <path
             id="path3783"
             style="fill:#2a327c;fill-opacity:1;fill-rule:nonzero;stroke:none"
             d="m 0,0 c 0,3.967 -1.744,8.064 -6.409,8.064 -4.751,0 -6.67,-3.879 -6.67,-8.195 0,-4.055 1.483,-8.589 6.365,-8.589 C -1.831,-8.72 0,-4.229 0,0 m 3.662,-9.81 c 0,-7.323 -3.357,-11.072 -10.463,-11.072 -4.228,0 -9.111,1.7 -9.329,6.626 h 3.706 c 0.174,-2.703 3.4,-3.662 5.841,-3.662 4.839,0 6.757,3.488 6.757,8.545 v 1.482 H 0.087 c -1.221,-2.747 -4.185,-4.098 -7.019,-4.098 -6.713,0 -10.07,5.275 -10.07,11.422 0,5.318 2.616,11.901 10.419,11.901 2.834,0 5.362,-1.264 6.714,-3.749 h 0.043 v 3.226 h 3.488 z" />
        </g>
        <path
           id="path3785"
           style="fill:#2a327c;fill-opacity:1;fill-rule:nonzero;stroke:none"
           d="m 407.491,325.989 h 3.706 v -22.538 h -3.706 z m 3.705,4.055 h -3.706 v 4.534 h 3.706 z" />
        <g
           transform="translate(426.6729,306.1978)"
           id="g3787">
          <path
             id="path3789"
             style="fill:#2a327c;fill-opacity:1;fill-rule:nonzero;stroke:none"
             d="m 0,0 c 3.88,0 7.019,3.051 7.019,8.501 0,5.492 -3.139,8.544 -7.019,8.544 -3.88,0 -7.019,-3.052 -7.019,-8.544 C -7.019,3.051 -3.88,0 0,0 m 0,20.314 c 7.149,0 10.942,-5.187 10.942,-11.813 C 10.942,1.918 7.149,-3.27 0,-3.27 c -7.149,0 -10.942,5.188 -10.942,11.771 0,6.626 3.793,11.813 10.942,11.813" />
        </g>
        <g
           transform="translate(441.9775,325.9889)"
           id="g3791">
          <path
             id="path3793"
             style="fill:#2a327c;fill-opacity:1;fill-rule:nonzero;stroke:none"
             d="m 0,0 h 3.487 v -3.574 h 0.088 c 1.57,2.79 4.098,4.097 7.323,4.097 5.929,0 7.76,-3.4 7.76,-8.239 V -22.538 H 14.953 V -7.28 c 0,2.747 -1.744,4.534 -4.578,4.534 -4.49,0 -6.67,-3.008 -6.67,-7.063 V -22.538 H 0 Z" />
        </g>
        <g
           transform="translate(300.5933,307.8087)"
           id="g3795">
          <path
             id="path3797"
             style="fill:#e42313;fill-opacity:1;fill-rule:nonzero;stroke:none"
             d="m 0,0 c -0.195,-0.076 -0.903,-0.288 -0.845,-0.316 -0.058,0.028 -0.103,0.038 -0.1,0.088 0.078,0.269 -1.165,-0.887 -1.224,-0.442 -0.036,0.076 0.059,-0.018 -0.116,0.028 0.454,-0.063 -2.779,-1.086 -2.779,-1.029 -0.155,0.335 -0.12,0.667 0.086,0.973 0.255,0.641 -0.553,1.556 -0.249,1.287 -0.219,0.222 -0.219,0.431 -0.007,0.654 0.139,-0.1 0.007,0.031 0.081,0.316 0.089,0.057 -0.168,0.41 0.066,0.284 0.203,0.06 0.538,1.203 0.298,2.018 -0.532,1.234 -0.306,10.141 -0.037,9.8 0.096,0.616 -0.474,1.07 -0.202,1.525 0.021,0.468 -0.426,0.484 -0.366,0.8 -0.238,0.94 -1.562,0.924 -1.416,1.123 -0.699,-0.155 -3.277,-4.303 -3.302,-4.408 0.158,0.153 -1.745,-2.708 -1.707,-2.718 -0.21,0.048 -0.447,-0.322 -0.491,-0.751 -0.019,-0.052 -1.08,-1.361 -0.966,-1.105 -0.363,-0.61 -0.792,-1.191 -1.127,-1.814 0.26,0.166 -0.469,-0.504 -0.36,-0.482 0.016,0.072 -0.821,-2.015 -0.831,-1.834 0.079,0.281 -1.029,-1.027 -1.145,-1.036 -0.235,-0.951 -3.755,1.373 -3.821,2.437 0.009,0.039 -0.072,0.986 -0.546,1.1 0.208,-0.185 -2.504,2.285 -2.299,2.093 -1.418,1.888 -2.533,1.834 -4.63,3.668 0.014,0.029 -0.49,1.193 -0.845,1.605 -0.792,-0.194 -1.863,-1.424 -1.637,-1.727 -0.339,-0.143 -0.402,0.284 -0.535,0.429 -0.107,-0.464 0.347,-3.142 0.347,-3.142 -0.05,-0.385 0.183,-2.373 0.269,-2.078 l 0.153,-0.173 c 0,-0.019 -0.239,-0.297 0.055,-0.49 0.322,-0.568 0.974,-0.969 0.742,-1.761 -0.285,-0.143 0.034,-1.181 -0.016,-0.843 -0.32,-1.641 3.533,-4.727 3,-6.918 -0.247,-0.196 0.735,-1.361 0.533,-1.307 -0.334,-0.392 -1.329,-0.642 -2.024,-0.827 -0.203,-0.118 -0.413,-0.013 -0.632,0.054 -0.21,0.04 -1.958,0.754 -2.449,0.422 -0.019,-0.05 -1.449,0.332 -1.459,0.269 0.257,0.29 -1.635,-0.401 -1.351,0.214 0.123,0.477 -1.648,-0.505 -1.211,-0.246 -0.029,-0.018 -0.772,-0.435 -0.753,-0.312 0.058,0.166 -0.675,0.018 -0.508,-0.022 -0.111,0.031 -0.862,0.246 -0.752,0.173 -0.416,0.275 -0.504,-0.098 -0.996,0.139 -0.03,-0.056 -0.589,-0.133 -0.693,-0.105 -0.035,0.01 -1.108,-0.038 -1.108,-0.006 0.085,0.036 -0.942,-0.299 -1.011,-0.032 0.038,0.048 -0.81,-0.595 -1.048,-0.198 0.106,0.329 -0.956,-0.269 -1.124,-0.294 -0.129,0.025 -0.666,0.26 -0.561,0.092 -0.089,-0.048 -0.754,-0.862 -0.754,-0.862 0.125,-0.038 3.649,-2.682 3.096,-2.268 0,0 0.38,-0.317 1.306,-0.868 -0.147,-0.394 1.36,-0.018 1.115,-0.874 1.402,0.827 4.276,-3.038 5.284,-2.425 0.128,0 0.558,-0.675 0.698,-0.622 -0.227,0.197 0.73,-0.316 0.429,-0.294 0.133,-0.157 0.084,-0.1 0.542,-0.574 1.148,0.051 1.636,-0.897 2.016,-1.217 1.262,-2.427 -3.974,-4.772 -4.425,-5.999 -0.017,-0.062 -0.017,-0.113 -0.087,-0.093 0.059,-0.057 -0.733,-0.345 -0.823,-0.727 l -0.786,-1.019 c -0.698,0.199 -2.47,-2.618 -3.189,-2.981 l -1.708,-0.789 c 0,0 -0.24,-0.234 -0.4,-0.472 -0.157,-0.245 -0.391,-0.529 -0.563,-0.589 -0.147,-0.058 -1.208,-1.105 -1.208,-1.105 l -0.263,-0.496 0.427,-0.189 c 0,0 -0.275,-0.322 -0.316,-0.462 -0.059,-0.12 -0.212,-0.47 0.119,-0.545 0.345,-0.08 0.537,-0.08 0.618,-0.241 0.074,-0.164 1.447,-0.269 1.558,-0.247 0.103,0.036 0.786,0.338 0.786,0.338 0.66,0.209 2.82,0.178 3.069,-0.038 -0.044,0.01 3.139,0.783 3.224,1.039 0.104,-0.015 1.96,0.652 1.96,0.652 0.508,0.237 1.67,0.425 2.04,0.848 -0.353,-0.069 1.497,0.569 2.019,0.313 0.161,-0.088 4.621,0.838 4.774,1.411 0.36,-0.037 0.401,-0.372 0.422,-0.392 -0.104,-0.591 -0.013,-2.228 -0.234,-2.513 0.008,0.235 -0.625,-0.425 -0.41,-0.776 0.448,-0.14 0.426,0.022 0.704,-0.635 -0.13,0.297 0.031,-1.324 -0.006,-1.907 0.015,-0.312 0.516,-1.345 -0.311,-1.752 0,0 -0.468,-0.972 -0.489,-0.957 0.062,0.476 0.062,-0.244 -0.028,-0.107 0.418,0.198 0.294,-1.079 0.199,-1.236 0.079,0.201 -0.217,-0.245 -0.248,-0.093 -0.674,-1.322 0.744,-1.469 -0.074,-1.617 0.35,-0.105 0.533,-1.861 0.511,-1.604 0.08,-0.592 0.03,-1.162 -0.151,-1.722 -0.118,0.366 -0.317,-0.673 -0.255,-0.955 0.137,-0.66 -0.192,-1.905 0.436,-2.193 -0.096,0.26 0.476,-0.605 0.476,-0.605 1.471,-0.623 1.831,1.303 2.485,1.607 0.222,0.047 0.477,0.934 0.689,0.865 0.021,0.069 0.905,4.298 1.586,4.079 -0.032,0 1.138,1.737 1.377,2.48 -0.009,-0.051 -0.562,0.606 0.612,1.117 0.57,-0.192 0.834,1.329 0.98,2.197 0.038,0.496 0.389,0.256 0.439,0.784 -0.01,-0.146 1.01,1.559 1.177,2.257 0.167,-0.01 0.193,0.773 0.31,0.666 -0.317,0.275 0.276,0.6 0.199,0.84 0.109,0.42 0.073,0.795 0.256,0.761 0.173,0.818 0.687,0.462 0.801,0.387 0.244,-0.131 0.579,0.075 0.619,-0.532 -0.235,-0.304 0.762,-0.591 0.676,-0.779 -0.029,0.144 4.758,-5.502 6.08,-6.584 0.061,-0.057 3.768,-3.736 3.607,-3.697 0.41,-0.213 0.755,-0.957 0.783,-0.905 -0.155,-0.238 0.707,-0.63 0.859,-0.63 0.561,-0.982 0.59,-0.781 0.89,-0.613 0.098,-0.438 0.843,-0.227 1.116,-0.369 -0.083,0.211 0.586,0.397 0.441,0.632 0.202,-0.071 -0.138,0.795 0.05,0.693 -0.239,0.412 -1.643,2.28 -1.546,2.622 0.029,0.116 0.201,0.073 0.305,0.05 -0.018,0.11 -0.179,0.225 -0.276,0.304 0.258,0.006 0.314,0.141 0.172,0.413 -0.252,-0.138 -0.598,1.459 -0.379,1.683 0.089,0.408 -1.146,5.406 -1.73,5.894 0.038,0.175 -0.202,1.276 -0.248,1.371 -0.968,0.604 -0.167,1.812 -0.835,2.024 -0.156,-0.3 -0.852,0.839 -0.952,1.788 -0.321,0.588 0,2 -0.219,1.79 -0.19,0.214 1.004,0.722 1.3,0.072 2.52,-0.954 7.333,0.629 9.074,-0.72 0.411,0.777 1.336,0.173 0.841,0.316 -0.076,-0.094 0.088,-0.14 0.201,-0.171 -0.231,0.049 1.695,0.171 1.987,0.018 -0.742,0.181 1.089,0.062 1.016,0.09 -0.65,0.142 1.301,-0.234 3.379,1.055 0.746,0.229 0.609,0.617 0.922,1.331 -0.127,-0.609 0.194,0.609 -0.437,0.995 -3.682,0.923 -6.611,3.64 -10.278,4.601 -1.421,0.302 -3.717,3.782 -4.938,3.561 2.22,2.535 4.373,5.058 6.662,7.211 0.45,0.432 5.039,5.383 5.039,5.324 0.171,0.249 0.428,1.073 0.409,0.719 0.009,0.118 -0.047,0.275 -0.171,0.453 C 12.772,2.705 11.057,4.047 10.609,3.211 11.214,2.835 9.384,2.705 8.936,2.601 8.799,2.516 8.683,2.551 8.58,2.579 8.121,2.692 7.521,2.169 7.215,2.1 6.544,2.698 4.863,1.587 4.099,1.331 4.162,1.364 3.771,1.284 3.177,1.411 2.921,0.992 2.929,1.111 2.992,1.149 2.77,1.029 2.583,0.839 1.687,0.533 1.788,0.495 1.119,0.213 0.862,0.281 0.884,0.163 0.762,-0.153 0.367,-0.076 0.07,0 0.109,0.113 0,0" />
        </g>
      </g>
    </g>
  </g>
</svg>
