<svg id="a725e731-2abe-4666-b20d-86971ac1cba2" data-name="Calque 1" xmlns="http://www.w3.org/2000/svg" viewBox="0 0 476.03 310.84"><title>logoEssonne_blanc</title><rect y="299.28" width="39.62" height="2.86" style="fill:#fff"/><rect x="436.34" y="299.28" width="39.61" height="2.86" style="fill:#fff"/><path d="M79.67,298.52h-6V314.8h-4V298.52h-5.9v-3.25H79.67Z" transform="translate(-2.96 -4.23)" style="fill:#fff"/><path d="M103,306.31H95.25v5.26h9.07v3.23H91.22V295.27h13.07v3.25h-9v4.66H103Z" transform="translate(-2.96 -4.23)" style="fill:#fff"/><path d="M123.18,307.65H120v7.15h-4V295.27h7.26a8.19,8.19,0,0,1,5.34,1.54,5.3,5.3,0,0,1,1.88,4.36,6,6,0,0,1-.86,3.34,6,6,0,0,1-2.63,2.12l4.23,8v.18h-4.32ZM120,304.39h3.25a3.36,3.36,0,0,0,2.35-.77,2.78,2.78,0,0,0,.83-2.13,2.92,2.92,0,0,0-.79-2.17,3.24,3.24,0,0,0-2.41-.8H120Z" transform="translate(-2.96 -4.23)" style="fill:#fff"/><path d="M150,307.65h-3.21v7.15h-4V295.27H150a8.23,8.23,0,0,1,5.34,1.54,5.33,5.33,0,0,1,1.88,4.36,5.46,5.46,0,0,1-3.49,5.46l4.22,8v.18h-4.32Zm-3.21-3.26H150a3.36,3.36,0,0,0,2.35-.77,2.78,2.78,0,0,0,.83-2.13,2.92,2.92,0,0,0-.79-2.17,3.23,3.23,0,0,0-2.4-.8h-3.24Z" transform="translate(-2.96 -4.23)" style="fill:#fff"/><path d="M181.3,306.31h-7.73v5.26h9.07v3.23H169.55V295.27h13.07v3.25h-9.05v4.66h7.73Z" transform="translate(-2.96 -4.23)" style="fill:#fff"/><path d="M210.37,314.8V295.27h6a9.1,9.1,0,0,1,4.61,1.16,8.07,8.07,0,0,1,3.17,3.3,10.17,10.17,0,0,1,1.14,4.86v.9a10.21,10.21,0,0,1-1.12,4.85,8.05,8.05,0,0,1-3.16,3.28,9.1,9.1,0,0,1-4.6,1.18Zm4-16.28v13.05h1.95A4.41,4.41,0,0,0,220,310a7,7,0,0,0,1.27-4.42v-1a7.12,7.12,0,0,0-1.23-4.52,4.39,4.39,0,0,0-3.61-1.54Z" transform="translate(-2.96 -4.23)" style="fill:#fff"/><path d="M238.36,301.26l-1.83-1.06a7.18,7.18,0,0,0,1.2-3.74v-2.27h3.08v2.08a6.09,6.09,0,0,1-.67,2.62A7.18,7.18,0,0,1,238.36,301.26Z" transform="translate(-2.96 -4.23)" style="fill:#fff"/><path d="M262.49,310.78h-7.06l-1.34,4h-4.28l7.27-19.53h3.73l7.31,19.53h-4.28Zm-6-3.26h4.88L259,300.2Z" transform="translate(-2.96 -4.23)" style="fill:#fff"/><path d="M285.4,310l4.42-14.69h4.49l-6.8,19.53H283.3l-6.77-19.53H281Z" transform="translate(-2.96 -4.23)" style="fill:#fff"/><path d="M317.16,306.31h-7.72v5.26h9.07v3.23h-13.1V295.27h13.07v3.25h-9v4.66h7.72Z" transform="translate(-2.96 -4.23)" style="fill:#fff"/><path d="M346,314.8h-4L334.15,302V314.8h-4V295.27h4L342,308.15V295.27h4Z" transform="translate(-2.96 -4.23)" style="fill:#fff"/><path d="M363.08,314.8h-4V295.27h4Z" transform="translate(-2.96 -4.23)" style="fill:#fff"/><path d="M383.3,307.65h-3.2v7.15h-4V295.27h7.26a8.19,8.19,0,0,1,5.34,1.54,5.33,5.33,0,0,1,1.88,4.36,6,6,0,0,1-.87,3.34,5.93,5.93,0,0,1-2.62,2.12l4.23,8v.18H387Zm-3.2-3.26h3.24a3.34,3.34,0,0,0,2.35-.77,2.74,2.74,0,0,0,.83-2.13,3,3,0,0,0-.78-2.17,3.26,3.26,0,0,0-2.41-.8H380.1Z" transform="translate(-2.96 -4.23)" style="fill:#fff"/><path d="M413,309.68a2,2,0,0,0-.8-1.75,10.41,10.41,0,0,0-2.9-1.29A19.81,19.81,0,0,1,406,305.3q-3.33-1.8-3.33-4.84a4.76,4.76,0,0,1,.89-2.83,5.9,5.9,0,0,1,2.56-1.94,9.79,9.79,0,0,1,3.75-.69,8.84,8.84,0,0,1,3.73.75,6,6,0,0,1,2.55,2.14A5.66,5.66,0,0,1,417,301h-4a2.61,2.61,0,0,0-.85-2.09,3.44,3.44,0,0,0-2.37-.75,3.7,3.7,0,0,0-2.3.63,2,2,0,0,0-.82,1.64,1.88,1.88,0,0,0,1,1.6,10.91,10.91,0,0,0,2.83,1.21,12.15,12.15,0,0,1,5,2.56,5.09,5.09,0,0,1,1.57,3.81,4.72,4.72,0,0,1-1.91,4,8.45,8.45,0,0,1-5.17,1.44,10,10,0,0,1-4.11-.82A6.46,6.46,0,0,1,403,312a5.75,5.75,0,0,1-1-3.32h4q0,3.22,3.87,3.23a3.77,3.77,0,0,0,2.24-.58A1.9,1.9,0,0,0,413,309.68Z" transform="translate(-2.96 -4.23)" style="fill:#fff"/><path d="M176.15,173.43a1,1,0,0,1,0,.31v.14c.26.25.37.26.5.27s.89-.39,1.11-.66l.05,0a52.14,52.14,0,0,0,4.64-11.08c-4,6.18-5.9,9.61-6.26,10.81C176.18,173.31,176.16,173.39,176.15,173.43Z" transform="translate(-2.96 -4.23)" style="fill:#fff"/><path d="M166.15,106.59c-4,8.25-3.59,12.07-3.13,12.73C166.59,111.74,167.25,107.25,166.15,106.59Z" transform="translate(-2.96 -4.23)" style="fill:#fff"/><path d="M218.19,159.08a6.46,6.46,0,0,0,2.55.52c3.34,0,7-2.7,9.71-6.38S235,145.05,235,142.1a5.47,5.47,0,0,0-.26-1.75c-1.71-3.29-3.16-5.77-3.92-7-10.32,9.78-15.33,15.84-15.23,20.22C215.55,155.4,216.36,157.13,218.19,159.08Z" transform="translate(-2.96 -4.23)" style="fill:#fff"/><path d="M396.92,135.13c-.06-3.53-2-5.92-6.14-6.55l-.24-.06a3.23,3.23,0,0,0-1.13-.17h0c-2.44,0-7.27,1.61-11.37,6s-7.66,11.63-7.67,23c0,.29,0,.57,0,.87C388.82,152.72,397,141.85,396.92,135.13Z" transform="translate(-2.96 -4.23)" style="fill:#fff"/><path d="M245.32,215a4.58,4.58,0,0,0-3.19-1.06h-4.29v7.84H242a4.64,4.64,0,0,0,3.21-1,3.61,3.61,0,0,0,1.16-2.83A3.86,3.86,0,0,0,245.32,215Z" transform="translate(-2.96 -4.23)" style="fill:#fff"/><path d="M158.31,213.92h-2.84v16.83h2.65a6.15,6.15,0,0,0,4.91-2,8.72,8.72,0,0,0,1.74-5.74v-1.29a8.94,8.94,0,0,0-1.65-5.81A5.91,5.91,0,0,0,158.31,213.92Z" transform="translate(-2.96 -4.23)" style="fill:#fff"/><path d="M201.67,213.92h-5v8.16h4.88a4.8,4.8,0,0,0,3.31-1,3.75,3.75,0,0,0,1.14-2.95,4.06,4.06,0,0,0-1.15-3A4.47,4.47,0,0,0,201.67,213.92Z" transform="translate(-2.96 -4.23)" style="fill:#fff"/><polygon points="213.54 221.07 220.32 221.07 216.93 211.38 213.54 221.07" style="fill:#fff"/><path d="M3.89,53V264.17H479V4.23ZM119.83,234H105.15V210.64h4.06v20.11h10.62Zm19,0H123.5V210.64h15.18v3.28H127.57v6.46h9.6v3.21h-9.6v7.16h11.22Zm-22-48.77h-.09a53,53,0,0,1-18.94-3.76l.38-1.79c2.48.13,4.83.21,7.07.21,21.25,0,31.77-6,37.5-13.73,5.39-7.29,6.54-16.34,7.83-23.8a14.46,14.46,0,0,0-2.05,1.24c-1.54,1.06-3.52,2.61-5.93,4.48a221.85,221.85,0,0,1-19.51,13.94c-16.3,10.22-39.38,20.77-69.46,22.15-5.75-.7-9.91-1.36-12.73-2.76s-4.37-3.57-4.32-6.33c0-3.1,1.63-6.8,4.38-11.74l0-.08.07-.09c5.11-5.71,15.39-20.86,59.12-41.31,2.16-1.63,2.76-2.91,2.74-3.55a1.6,1.6,0,0,0-.74-1.25,5.08,5.08,0,0,0-2-.82l-36.9-.38a2.19,2.19,0,0,1-.78.12c-1.09,0-2.66-.7-4.15-3.16l-.16-.28,0-.32c.53-4.06,5.17-9.87,15-16.1S98.12,83.56,119.69,79l.29-.07.28.14a1.58,1.58,0,0,1,.94,1.43c-.08,1.14-.89,1.86-2.8,2.91l-.22.12h-.27l-.41,0c-7.35-.06-29.28,8.52-39.42,15.67-3.43,2.32-5.38,4.69-5.26,5.71a1.19,1.19,0,0,0,.57,1,6.57,6.57,0,0,0,2.37,1,30.37,30.37,0,0,1,4.92-.62c2.55-.18,5.82-.3,9.38-.3,7.54,0,16.37.53,22.6,2.22l.54.18a6.25,6.25,0,0,1,2.33,1.07,4.48,4.48,0,0,1,2,3.68c0,2.63-2.07,5.81-8.06,10.25s-16.13,10.15-32.8,17.5a159.37,159.37,0,0,0-21.57,16.55c-6.35,5.88-10.75,11.81-10.67,15.48a4.11,4.11,0,0,0,2.34,3.75A37.26,37.26,0,0,0,57.46,178c24.38,0,59.28-19,93.71-42.3,0-.25,0-.59,0-1,0-5.56.88-25.2,14.16-40.07h0l0,0a3.62,3.62,0,0,1,2.53-1.32c1.36,0,2.21,1.11,2.67,2.37a15.62,15.62,0,0,1,.72,5.15c0,7.38-2.95,19.39-10.72,30.74C156,170.07,137.55,185.27,116.8,185.26Zm52.05,37.67a12.27,12.27,0,0,1-1.33,5.84,9.25,9.25,0,0,1-3.77,3.89,11.32,11.32,0,0,1-5.61,1.37h-6.73V210.64h6.9a10.73,10.73,0,0,1,5.5,1.39,9.42,9.42,0,0,1,3.72,3.91,12.45,12.45,0,0,1,1.32,5.82ZM188.74,234H173.45V210.64h15.18v3.28H177.52v6.46h9.6v3.21h-9.6v7.16h11.22Zm-9.58-24.9,3.13-4.86h4.45l-4.45,4.87Zm-2-26.59-.55.63a6.15,6.15,0,0,1-4,1.94c-1.43,0-2.68-1-4-2.86l-.1-.14,0-.16a9.29,9.29,0,0,1-.24-2.23c0-4.31,2.2-13.23,15-28.67l.05-.23c.08-.35.21-.95.35-2,.29-2,.69-5.76,1.1-12.34,2.49-24.1,6.48-37.72,11.06-46s9.73-11.1,14.16-13.46a2.86,2.86,0,0,1,1.87-.6c2.59.07,6.72,2.31,13.77,14.17l.21.34-.11.38a13,13,0,0,1-1.15,2.91,2.49,2.49,0,0,1-2,1.44,1.92,1.92,0,0,1-1.37-.65,4.76,4.76,0,0,1-.78-1.25s-.13-.12-.22-.22c-.25-.24-.7-.64-1.42-1.24-1.47-1.18-4.07-3.15-8.62-6.23l-.06,0,0-.06s0,0-.1,0c-.32-.1-1.89.83-3.57,3.1a50.84,50.84,0,0,0-5.78,10.35c-4.07,9.29-8.22,23.44-10.45,42.67l0,.08a.62.62,0,0,0,.07.16h0a130.33,130.33,0,0,1,14.17-12.13c6.78-5,14.49-9.66,20.65-10a9.19,9.19,0,0,1,4.62-1.52c2.24-.05,4.37,1.49,5.28,4.74l.08.29-.1.29s0,.07,0,.13a3.68,3.68,0,0,0-.06.72c0,1.47.56,4.91,4.54,10.64l.09.15A27.32,27.32,0,0,1,242.31,147c0,11.67-10,19.42-25.8,20l-.27-.05-.26-.1c-5.25-3.28-8.36-6.7-8.35-11.66,0-6.18,4.53-14.15,13.85-27.63l.41-.54c-1.09-.07-4.86,1.73-10.36,6a239.45,239.45,0,0,0-22.4,20C188.76,155.32,186.07,170.23,177.14,182.54Zm30.69,40.9a9.47,9.47,0,0,1-6.32,1.91h-4.84V234h-4.06V210.64h8.94a9.06,9.06,0,0,1,6.23,2,6.91,6.91,0,0,1,2.3,5.41A6.64,6.64,0,0,1,207.83,223.44ZM226.33,234l-1.91-5.45h-9.06L213.47,234h-4.23l8.84-23.39h3.64L230.57,234Zm25.08,0h-4.35l-4.69-9h-4.53v9h-4.06V210.64H242a9.58,9.58,0,0,1,6.25,1.82,6.44,6.44,0,0,1,2.2,5.26,6.63,6.63,0,0,1-1.13,3.93,7.29,7.29,0,0,1-3.16,2.43l5.25,9.74ZM271,213.92h-7.29V234h-4V213.92h-7.22v-3.28H271ZM289.87,234H274.58V210.64h15.17v3.28H278.64v6.46h9.6v3.21h-9.6v7.16h11.23Zm27.86,0h-4.05v-7.71l.4-10.31-6.9,18h-2.91l-6.89-18,.4,10.3V234h-4V210.64H299l6.75,17.93,6.72-17.93h5.26Zm20.65,0H323.09V210.64h15.17v3.28H327.15v6.46h9.6v3.21h-9.6v7.16h11.23Zm22.41,0h-4.06l-10.42-16.59V234h-4.07V210.64h4.07l10.45,16.66V210.64h4Zm21.79-20.11h-7.29V234h-4V213.92H364v-3.28h18.55Zm62.86-30.72a2.79,2.79,0,0,1-2.05,1.44h0a1.29,1.29,0,0,1-.62-.15c-1.18-.66-4-1-7.82-.93-5.05,0-11.83.4-19.35.4-17.38,0-38.85-2.11-52.6-16.72a37.28,37.28,0,0,1-8.5,1c-9.35,0-17.4-3.87-19.87-11.07-.24-.53-.33-.5-.77-.54a2.81,2.81,0,0,0-1,.21l-.4.17c-3.1,2.84-5.68,5.56-7.48,7.58s-2.84,3.36-2.85,3.37l-.25.32-.4,0c-.33,0-.66,0-1,0-3.34,0-5.07-1.85-5.08-3.54a2.06,2.06,0,0,1,.14-.77v0l0,0c3.11-5.88,6.74-12.59,7.29-13.59a.92.92,0,0,0,0-.16.39.39,0,0,0-.09-.29s0,0,0,0,0,0,0,0a.69.69,0,0,0-.2.23l-.06.1-.08.1c-13.82,14-23.53,16.29-23.69,16.33l-.1,0h-.11a8,8,0,0,1-5.17-2.22c-1.31-1.22-2.25-2.5-2.31-3.84a133.31,133.31,0,0,1,1.78-21.35,1,1,0,0,0-.15-.54c-.06-.07-.05-.05-.08-.06s-.31.05-.63.56l-.08.13-.13.1C274.65,153.05,265,162.57,261,167.4a14.14,14.14,0,0,0-2.14,3.07l-.34.46c-1.86,1.29-3.16,2.1-4.43,2.15a1.65,1.65,0,0,1-1.27-.53,1.9,1.9,0,0,1-.42-1.28,11.18,11.18,0,0,1,1.56-4.46c6.14-16.92,16-31.57,20.72-39.37a23,23,0,0,0,2.65-5.09v0l0-.06a21.58,21.58,0,0,0,1-6.15,11.88,11.88,0,0,0-5.62-10.49c-4.06-2.7-10.73-4.43-20.81-4.42h-.53a20.42,20.42,0,0,1-6.37,1.51,3.24,3.24,0,0,1-1.42-.26,1.44,1.44,0,0,1-.86-1.29,1.45,1.45,0,0,1,0-.3v-.07c.74-2.57,1.08-4.2,1.55-5.41a3.71,3.71,0,0,1,2.53-2.46,18.1,18.1,0,0,1,3.11-.54c1.16-.07,2.29-.11,3.41-.11,17.4,0,28.18,8.57,32.07,17.37l.08.3c.14,2,.2,3.69.2,5.15,0,5.83-.94,7.59-1.35,8.13-14,21.67-17.78,30.34-18.69,32.76,18.55-19.41,29.88-26.27,30-26.32l.13-.08.14,0a3.69,3.69,0,0,1,.72-.08,3.07,3.07,0,0,1,2.79,2.22,6.82,6.82,0,0,1,.41,1.9v.13l0,.14c-1.83,7.42-3.08,13.84-3.07,18.28a10.17,10.17,0,0,0,.94,5,2.85,2.85,0,0,0,2.77,1.5,11.14,11.14,0,0,0,4.3-1.14c7.86-7,14-12.32,18.67-15.94s7.79-5.56,10.19-5.63a2.65,2.65,0,0,1,1.87.71,3.27,3.27,0,0,1,.89,1.83v.29a25.28,25.28,0,0,1-3.11,8.73,6.73,6.73,0,0,1,3.4,1,10.19,10.19,0,0,1,2.31,2.75l0,0,0,0c2,3.41,3.64,6,5.71,7.58s4.65,2.49,8.94,2.5a53.08,53.08,0,0,0,7.9-.71c1.46-26,17.45-37.67,29.35-37.68,6.09,0,11.31,3.2,12.39,9.14a19.24,19.24,0,0,1,.27,3.08c0,7.11-4.25,13-9.53,17.53a64.75,64.75,0,0,1-16.38,9.86,51.88,51.88,0,0,1-5.15,1.91c2.76,5.13,10.06,8.47,19.66,10.39,10.17,2.05,22.77,2.57,34.76,2.57,5.78,0,11.44-.12,16.61-.24l.33.06a3.36,3.36,0,0,1,2.41,3.21A5.2,5.2,0,0,1,445.44,183.2Z" transform="translate(-2.96 -4.23)" style="fill:#fff"/></svg>